PLOT

A former drug lord returns from prison determined to wipe out all his competition and distribute the
profits of his operations to New York's poorand lower classes in this stylish and ultra violent modern
twist on Robin Hood.
 
http://www.imdb.com/title/tt0099939/

Encoded By .......: The One and Only LKRG Encoder
Runtime ..........: 1h 43mn
File Size ........: 924 MB
Resolution .......: 704 x 396
IMDb URL .........: http://www.imdb.com/title/tt0099939/
Genre ............: Crime,Drama,Thriller
Language .........: English
Subtitles ........: None
Video
ID : 0
Format : MPEG-4 Visual
Format profile : Advanced Simple@L5
Format settings, BVOP : Yes
Format settings, QPel : No
Format settings, GMC : No warppoints
Format settings, Matrix : Default (H.263)
Codec ID : XVID
Codec ID/Hint : XviD
Duration : 1h 43mn
Bit rate : 800 Kbps
Width : 704 pixels
Height : 396 pixels
Display aspect ratio : 16:9
Frame rate : 23.976 fps
Color space : YUV
Chroma subsampling : 4:2:0
Bit depth : 8 bits
Scan type : Progressive
Compression mode : Lossy
Bits/(Pixel*Frame) : 0.120
Stream size : 590 MiB (64%)
Writing library : XviD 1.2.1 (UTC 2008-12-04)
Audio
ID : 1
Format : AC-3
Format/Info : Audio Coding 3
Mode extension : CM (complete main)
Codec ID : 2000
Duration : 1h 43mn
Bit rate mode : Constant
Bit rate : 448 Kbps
Channel(s) : 6 channels
Channel positions : Front: L C R, Side: L R, LFE
Sampling rate : 48.0 KHz
Bit depth : 16 bits
Compression mode : Lossy
Video delay : 42ms
Stream size : 330 MiB (36%)
Alignment : Split accross interleaves
Interleave, duration : 500 ms (11.99 video frames)
Interleave, preload duration : 500 ms
